<?xml version="1.0" encoding="UTF-8" standalone="no"?>
<!DOCTYPE svg PUBLIC "-//W3C//DTD SVG 1.1//EN" "http://www.w3.org/Graphics/SVG/1.1/DTD/svg11.dtd">
<svg width="100%" height="100%" viewBox="0 0 278 494" version="1.1" xmlns="http://www.w3.org/2000/svg" xmlns:xlink="http://www.w3.org/1999/xlink" xml:space="preserve" xmlns:serif="http://www.serif.com/" style="fill-rule:evenodd;clip-rule:evenodd;stroke-linecap:round;stroke-linejoin:round;stroke-miterlimit:1.5;">
    <g transform="matrix(4.16667,0,0,4.16667,-3472.13,-4082.9)">
        <g>
            <g transform="matrix(-1,1.22465e-16,-1.22465e-16,-1,1603,1792.56)">
                <path d="M767.795,727.477C767.795,710.123 753.706,696.033 736.352,696.033C718.997,696.033 704.908,710.123 704.908,727.477L704.908,779.326C704.908,796.681 718.997,810.77 736.352,810.77C753.706,810.77 767.795,796.681 767.795,779.326L767.795,727.477Z" style="fill:none;stroke:white;stroke-opacity:0.48;stroke-width:3.8px;"/>
            </g>
            <g transform="matrix(-0.277425,3.39748e-17,-6.92543e-17,-0.565505,1070.93,1458.1)">
                <path d="M767.795,711.459C767.795,702.945 753.706,696.033 736.352,696.033C718.997,696.033 704.908,702.945 704.908,711.459L704.908,795.345C704.908,803.858 718.997,810.77 736.352,810.77C753.706,810.77 767.795,803.858 767.795,795.345L767.795,711.459Z" style="fill:none;stroke:white;stroke-opacity:0.48;stroke-width:8.53px;"/>
            </g>
            <g transform="matrix(-0.277425,3.39748e-17,-1.95343e-17,-0.15951,1070.93,1175.52)">
                <path d="M767.795,750.721C767.795,720.538 753.706,696.033 736.352,696.033C718.997,696.033 704.908,720.538 704.908,750.721L704.908,756.082C704.908,786.265 718.997,810.77 736.352,810.77C753.706,810.77 767.795,786.265 767.795,756.082L767.795,750.721Z" style="fill:none;stroke:white;stroke-width:16.78px;"/>
            </g>
        </g>
    </g>
</svg>
